HIERARCHY
ROOT Hips
{
  OFFSET 90.7885 88.945 -76.2838
  CHANNELS 6 Xposition Yposition Zposition Zrotation Xrotation Yrotation
  JOINT LeftUpLeg
  {
    OFFSET 8.64259 1.95398 -2.38835
    CHANNELS 3 Zrotation Xrotation Yrotation
    JOINT LeftLeg
    {
      OFFSET 43.7702 0 0
      CHANNELS 3 Zrotation Xrotation Yrotation
      JOINT LeftFoot
      {
        OFFSET 40.6238 0 0
        CHANNELS 3 Zrotation Xrotation Yrotation
        JOINT LeftToeBase
        {
          OFFSET 12.7242 0 0
          CHANNELS 3 Zrotation Xrotation Yrotation
          End Site
          {
            OFFSET 0 0 0
          }
        }
      }
    }
  }
  JOINT RightUpLeg
  {
    OFFSET -8.2249 1.95398 -2.59336
    CHANNELS 3 Zrotation Xrotation Yrotation
    JOINT RightLeg
    {
      OFFSET 43.5653 0 0
      CHANNELS 3 Zrotation Xrotation Yrotation
      JOINT RightFoot
      {
        OFFSET 40.6238 0 0
        CHANNELS 3 Zrotation Xrotation Yrotation
        JOINT RightToeBase
        {
          OFFSET 12.7242 0 0
          CHANNELS 3 Zrotation Xrotation Yrotation
          End Site
          {
            OFFSET 0 0 0
          }
        }
      }
    }
  }
  JOINT Spine
  {
    OFFSET 0.165834 0.87714 6.61349
    CHANNELS 3 Zrotation Xrotation Yrotation
    JOINT Spine1
    {
      OFFSET 7.38963 1.71661e-005 0
      CHANNELS 3 Zrotation Xrotation Yrotation
      JOINT Spine2
      {
        OFFSET 11.9445 1.14441e-005 0
        CHANNELS 3 Zrotation Xrotation Yrotation
        JOINT Spine3
        {
          OFFSET 14.7254 4.19617e-005 0
          CHANNELS 3 Zrotation Xrotation Yrotation
          JOINT Spine4
          {
            OFFSET 10.9679 0 0
            CHANNELS 3 Zrotation Xrotation Yrotation
            JOINT RightShoulder
            {
              OFFSET 2.46616 -1.6653 3.69651
              CHANNELS 3 Zrotation Xrotation Yrotation
              JOINT RightArm
              {
                OFFSET 13.0012 0 0
                CHANNELS 3 Zrotation Xrotation Yrotation
                JOINT RightForeArm
                {
                  OFFSET 28.7848 1.52588e-005 0
                  CHANNELS 3 Zrotation Xrotation Yrotation
                  JOINT RightHand
                  {
                    OFFSET 26.5688 1.52588e-005 0
                    CHANNELS 3 Zrotation Xrotation Yrotation
                    End Site
                    {
                      OFFSET 0 0 0
                    }
                  }
                }
              }
            }
            JOINT LeftShoulder
            {
              OFFSET 2.38034 -1.29275 -3.7523
              CHANNELS 3 Zrotation Xrotation Yrotation
              JOINT LeftArm
              {
                OFFSET 16.3182 6.10352e-005 0
                CHANNELS 3 Zrotation Xrotation Yrotation
                JOINT LeftForeArm
                {
                  OFFSET 27.0901 0 0
                  CHANNELS 3 Zrotation Xrotation Yrotation
                  JOINT LeftHand
                  {
                    OFFSET 24.5451 1.52588e-005 0
                    CHANNELS 3 Zrotation Xrotation Yrotation
                    End Site
                    {
                      OFFSET 0 0 0
                    }
                  }
                }
              }
            }
            JOINT Neck
            {
              OFFSET 5.0226 -0.0266342 0
              CHANNELS 3 Zrotation Xrotation Yrotation
              JOINT Head
              {
                OFFSET 6.69363 2.86102e-005 0
                CHANNELS 3 Zrotation Xrotation Yrotation
                End Site
                {
                  OFFSET 0 0 0
                }
              }
            }
          }
        }
      }
    }
  }
}
MOTION
Frames:	6
Frame Time:	0.0416667
43.7391 101.145 -267.133 -161.171 -84.775 -162.294 -178.531 -4.32694 88.7717 -8.4495 2.05548 0.602529 69.3129 4.05496 -2.57709 17.0906 -5.85794 8.86727 170.382 -3.34434 88.2088 -9.59242 -9.49489 -0.352201 67.1148 -3.54715 0.259445 23.614 0.41207 0.25375 0.192112 7.53189 -90.0801 11.8104 0.344395 -0.196403 0.139497 0.335419 -0.211376 -22.396 0.387506 -0.0838093 -2.38336 0.387494 -0.083826 89.2963 -31.0645 -107.729 39.7453 -16.3828 -5.27498 2.12487 -28.0932 -17.5757 -25.538 -0.824517 -8.05576 -88.6376 -55.4955 81.7686 -17.2865 22.269 -16.3967 2.12584 4.42691 -10.3224 2.45097 -0.305171 -9.4628 6.35902 -2.51165 -1.31286 -7.26125 -2.20242 -0.263333 
43.6273 101.075 -267.134 -161.49 -84.9329 -162.541 -178.761 -2.2118 88.8875 -12.3616 0.577884 1.09323 70.9436 3.82245 -4.10672 13.8475 -2.07279 4.6017 170.795 -2.87824 88.534 -10.3042 -9.04767 -0.580732 66.9399 -3.54838 0.963048 24.2952 0.421122 0.0871308 0.194651 7.52347 -90.0563 11.8272 0.360654 -0.150687 0.156289 0.353667 -0.166419 -22.3793 0.389267 -0.0353264 -2.36659 0.389268 -0.0353304 88.7556 -32.0388 -108.39 38.9195 -16.3798 -5.33413 2.96272 -28.7346 -17.0696 -25.8979 -0.949477 -7.51938 -88.3036 -55.17 82.1854 -17.3442 22.4893 -16.3132 2.05733 4.35392 -10.2623 1.5404 -0.287033 -9.32935 5.89735 -2.43371 -2.03752 -6.35857 -1.99699 -0.212021 
43.4884 101.082 -267.022 -158.487 -84.974 -159.373 -178.802 -2.05596 89.0365 -12.5248 0.061517 1.2732 71.2314 3.84194 -4.35451 13.0848 -1.0358 3.51906 171.157 -2.85568 88.917 -10.3816 -8.60741 -0.762676 67.3793 -3.78975 0.775085 24.2006 0.517412 -0.0958802 0.242126 7.51726 -90.0833 11.8398 0.44239 -0.213133 0.168948 0.43258 -0.232409 -22.3668 0.485991 -0.0703251 -2.35414 0.485989 -0.0703301 88.7156 -31.7045 -108.598 39.1466 -16.0453 -5.8948 4.31768 -28.1534 -14.8694 -26.1157 -0.767171 -8.29834 -88.3069 -54.7623 82.1117 -17.9641 23.2379 -16.1681 1.33183 3.2413 -7.99417 -2.15352 -0.0811321 -5.30928 5.95474 -2.46257 -1.91987 -6.49698 -2.04333 -0.28324 
43.3913 101.061 -266.791 -158.776 -85.2394 -159.927 -178.937 -2.21884 88.804 -11.9678 0.134714 1.29582 71.2181 3.93321 -4.17438 13.1207 -0.968031 3.44116 171.158 -2.60413 88.7948 -10.7677 -8.51892 -0.8627 67.7799 -3.94939 0.706562 23.8949 0.548049 -0.0919374 0.234616 7.47743 -90.0874 11.9195 0.425392 -0.22015 0.248558 0.415288 -0.23867 -22.2871 0.471883 -0.0821236 -2.27447 0.471888 -0.0821306 89.0529 -31.4914 -108.033 39.3004 -16.1958 -5.89444 3.95678 -28.3659 -15.2672 -25.757 -0.76479 -8.41372 -88.497 -55.4103 81.9528 -17.7332 23.0116 -15.7485 1.36166 3.02854 -8.12725 -1.79837 -0.0922784 -5.76238 5.96418 -2.37834 -0.962979 -6.73861 -2.10842 -1.14041 
43.1388 101.034 -266.462 -161.516 -85.3572 -162.664 -178.715 -2.46059 89.0746 -11.8694 0.636376 1.17544 71.277 3.99216 -4.08249 13.1013 -0.663296 3.10436 171.196 -2.83204 88.9412 -10.7974 -8.20796 -0.809215 68.0922 -4.08527 0.875016 23.8853 0.778039 -0.571555 0.209274 7.50673 -90.0421 11.8607 0.396383 -0.126331 0.189821 0.390438 -0.143658 -22.3458 0.416023 -0.00135788 -2.33318 0.416019 -0.00135998 88.5241 -31.8981 -108.888 38.8201 -16.4543 -6.17592 5.55842 -27.9324 -14.2628 -27.8043 -0.679148 -8.51755 -88.3631 -54.4817 81.9833 -18.6236 22.3206 -15.6928 1.70958 3.0347 -7.92526 -1.73432 -0.0902641 -5.84806 5.89485 -2.45982 -2.29637 -6.22862 -1.98296 0.0374488 
42.731 101.005 -266.084 -162.072 -85.5064 -163.344 -178.646 -2.51523 89.253 -11.9933 0.535978 1.22124 71.5951 4.13591 -4.79533 13.1402 -0.953449 3.42258 171.132 -3.0322 89.0266 -10.7126 -8.18359 -0.682804 68.3855 -4.23246 0.579741 23.9207 0.696612 -0.409853 0.239426 7.49424 -90.0718 11.8858 0.442345 -0.190554 0.214957 0.433533 -0.209848 -22.3208 0.47916 -0.0487982 -2.30814 0.479162 -0.0488042 89.3474 -31.3919 -107.503 39.3461 -16.2407 -6.38668 4.85912 -28.1942 -14.4605 -25.7651 -0.623653 -9.10517 -88.3798 -55.6482 82.1583 -17.4095 22.3457 -15.8285 1.64094 4.04021 -7.86512 -2.26144 -0.0937151 -6.79738 5.91822 -2.49188 -1.00949 -6.50987 -2.22789 -0.777283 
